#!OML:ASF F:\VICON\USERDATA\INSTALL\rory3\rory3.ASF
:FULLY-SPECIFIED
:DEGREES
1407
root -2.19404 16.3546 3.87868 -178.917 177.955 -180.013
lowerback 16.0013 -8.66783 -12.8531
upperback 4.45159 -13.5159 -3.17775
thorax -1.8388 -6.73082 5.67827
lowerneck -1.34907 7.5341 -4.54132
upperneck 11.7763 8.57856 18.2361
head 2.60654 4.78278 6.48925
rclavicle -6.63941e-014 -2.22639e-014
rhumerus -43.8348 18.4731 -76.574
rradius 104.867
rwrist -27.9945
rhand -12.0958 10.5402
rfingers 7.12502
rthumb 13.9647 -18.9708
lclavicle -6.63941e-014 -2.22639e-014
lhumerus 9.49863 -3.8495 86.3497
lradius 99.2428
lwrist 82.1789
lhand 13.6098 26.1817
lfingers 7.12502
lthumb 38.5415 51.8315
rfemur -49.1987 25.1638 -4.57579
rtibia 45.66
rfoot -8.12286 7.63865
rtoes -13.3383
lfemur 15.0847 0.127884 -9.66639
ltibia 37.3558
lfoot -26.7344 7.30442
ltoes -35.9328
1408
root -2.22706 16.322 3.93975 -178.873 177.111 -179.39
lowerback 15.914 -8.87697 -13.5117
upperback 4.5342 -13.8565 -3.01183
thorax -1.4385 -6.9367 6.15671
lowerneck -1.84456 7.63293 -4.9454
upperneck 12.2491 8.74211 17.5594
head 2.82718 4.86027 6.38628
rclavicle 3.57812e-014 -2.8625e-014
rhumerus -44.2934 16.9332 -75.8484
rradius 104.564
rwrist -29.6759
rhand -11.797 10.341
rfingers 7.12502
rthumb 14.2526 -19.1499
lclavicle 3.57812e-014 -2.8625e-014
lhumerus 10.1895 -6.82401 86.6765
lradius 100.177
lwrist 79.757
lhand 15.0482 26.1298
lfingers 7.12502
lthumb 39.897 51.3868
rfemur -49.5904 25.2346 -5.22675
rtibia 47.2371
rfoot -9.18107 7.46598
rtoes -13.9992
lfemur 15.4477 -0.545536 -10.2601
ltibia 36.6255
lfoot -26.8737 7.87289
ltoes -35.1789
1409
root -2.26136 16.3008 4.00684 -178.915 176.013 -178.927
lowerback 15.8865 -9.12661 -13.8244
upperback 4.65846 -14.2038 -2.88555
thorax -1.1093 -7.14233 6.42954
lowerneck -2.4226 7.76234 -5.092
upperneck 12.8044 8.9448 16.7777
head 3.10287 4.96291 6.2187
rclavicle 1.69365e-013 0
rhumerus -44.8023 15.3178 -75.2942
rradius 104.557
rwrist -31.3451
rhand -11.5239 9.98236
rfingers 7.12502
rthumb 14.5157 -19.4898
lclavicle 1.69365e-013 0
lhumerus 11.0342 -9.8041 86.7619
lradius 100.923
lwrist 78.0474
lhand 15.5108 26.1741
lfingers 7.12502
lthumb 40.3323 51.299
rfemur -49.5938 25.4432 -5.70533
rtibia 48.5698
rfoot -10.2119 6.71107
rtoes -14.205
lfemur 15.7174 -1.17952 -10.5092
ltibia 36.0976
lfoot -26.789 8.37062
ltoes -35.1984
1410
root -2.3025 16.2947 4.07561 -178.855 174.606 -178.643
lowerback 15.7947 -9.39166 -13.8049
upperback 4.72831 -14.5174 -2.74749
thorax -0.888243 -7.31948 6.54525
lowerneck -2.88061 7.83229 -5.09836
upperneck 13.2815 9.06942 16.0517
head 3.34983 5.02263 6.03927
rclavicle -1.145e-013 -6.67916e-014
rhumerus -45.3917 13.5014 -74.8525
rradius 104.77
rwrist -32.8208
rhand -10.9289 9.97576
rfingers 7.12502
rthumb 15.089 -19.4543
lclavicle -1.145e-013 -6.67916e-014
lhumerus 11.7479 -12.8184 87.0367
lradius 101.532
lwrist 76.8331
lhand 14.6715 26.0289
lfingers 7.12502
lthumb 39.5423 51.3914
rfemur -49.4458 25.5776 -6.04011
rtibia 49.6744
rfoot -11.186 5.15623
rtoes -13.7519
lfemur 15.6464 -1.72416 -10.2938
ltibia 35.7394
lfoot -26.4983 8.27884
ltoes -35.155
1411
root -2.34791 16.307 4.15909 -178.856 172.854 -178.324
lowerback 15.7255 -9.66717 -13.6938
upperback 4.75844 -14.8414 -2.66398
thorax -0.758268 -7.4908 6.57154
lowerneck -2.9812 7.7997 -5.31418
upperneck 13.578 9.05363 15.6794
head 3.46627 4.99932 5.9772
rclavicle -1.63799e-013 3.81667e-014
rhumerus -46.0544 11.5845 -74.4467
rradius 105.229
rwrist -33.9881
rhand -10.266 9.80762
rfingers 7.12502
rthumb 15.7275 -19.5733
lclavicle -1.63799e-013 3.81667e-014
lhumerus 11.544 -15.3585 88.1737
lradius 101.994
lwrist 75.2122
lhand 14.4629 25.9985
lfingers 7.12502
lthumb 39.3458 51.4186
rfemur -48.8212 25.5565 -6.22923
rtibia 50.5799
rfoot -12.1828 3.4295
rtoes -14.481
lfemur 15.473 -2.30108 -9.90555
ltibia 35.508
lfoot -25.8964 7.84067
ltoes -34.7617
1412
root -2.39871 16.3324 4.25473 -178.991 170.954 -178.217
lowerback 15.6917 -9.91056 -13.3337
upperback 4.78458 -15.0952 -2.62685
thorax -0.744773 -7.61534 6.43978
lowerneck -2.7244 7.71349 -5.39234
upperneck 13.7287 8.94497 15.4678
head 3.4867 4.92724 5.918
rclavicle 1.28017e-013 4.13472e-014
rhumerus -46.8177 9.63228 -74.0998
rradius 105.891
rwrist -34.6536
rhand -9.50713 9.69745
rfingers 7.12502
rthumb 16.4582 -19.6244
lclavicle 1.28017e-013 4.13472e-014
lhumerus 10.5107 -17.4486 89.7958
lradius 102.38
lwrist 73.3451
lhand 14.7203 26.0781
lfingers 7.12502
lthumb 39.5883 51.427
rfemur -47.7295 25.4812 -5.89237
rtibia 51.3124
rfoot -13.1761 1.88912
rtoes -16.1251
lfemur 15.3181 -2.78987 -9.09134
ltibia 35.3506
lfoot -25.0477 7.13677
ltoes -34.1171
1413
root -2.45806 16.3721 4.34803 -178.925 168.88 -177.956
lowerback 15.5841 -10.0848 -13.1743
upperback 4.74058 -15.2838 -2.58822
thorax -0.729876 -7.70578 6.39486
lowerneck -2.47859 7.57508 -5.41808
upperneck 13.8947 8.73671 15.4744
head 3.51449 4.82058 5.91899
rclavicle 1.23246e-013 -2.8625e-014
rhumerus -47.5084 7.59924 -73.6753
rradius 106.706
rwrist -34.7699
rhand -8.99634 9.72528
rfingers 7.12502
rthumb 16.95 -19.5551
lclavicle 1.23246e-013 -2.8625e-014
lhumerus 9.18839 -19.3693 91.4528
lradius 102.84
lwrist 71.5953
lhand 15.0213 25.9892
lfingers 7.12502
lthumb 39.8717 51.2538
rfemur -46.6247 25.0886 -5.65872
rtibia 51.9081
rfoot -14.0093 0.570397
rtoes -16.9595
lfemur 14.8302 -3.18195 -8.25972
ltibia 35.1777
lfoot -23.8276 6.23787
ltoes -33.9806
1414
root -2.52575 16.4246 4.44057 -178.662 166.599 -177.595
lowerback 15.3926 -10.2387 -13.236
upperback 4.63673 -15.4682 -2.45099
thorax -0.6491 -7.80066 6.53987
lowerneck -2.19593 7.39994 -5.67235
upperneck 13.992 8.47439 15.737
head 3.49528 4.6867 6.03159
rclavicle -1.31993e-013 6.36111e-015
rhumerus -47.966 5.76261 -73.0263
rradius 107.639
rwrist -34.558
rhand -8.62761 9.76005
rfingers 7.12502
rthumb 17.3049 -19.4895
lclavicle -1.31993e-013 6.36111e-015
lhumerus 7.58735 -21.0898 93.1991
lradius 103.445
lwrist 70.188
lhand 15.5545 25.8838
lfingers 7.12502
lthumb 40.3733 50.9961
rfemur -45.4975 24.3998 -5.50722
rtibia 52.3258
rfoot -14.7219 -0.977942
rtoes -17.7648
lfemur 14.0125 -3.59859 -7.40582
ltibia 35.0147
lfoot -22.375 5.18468
ltoes -34.3676
1415
root -2.59252 16.4838 4.53614 -178.42 164.423 -177.2
lowerback 15.1311 -10.3095 -13.3891
upperback 4.55678 -15.5449 -2.33036
thorax -0.505869 -7.84871 6.68623
lowerneck -1.77854 7.19486 -5.87276
upperneck 14.0097 8.16683 16.0357
head 3.43644 4.52781 6.13826
rclavicle 1.41137e-013 -3.18055e-014
rhumerus -48.2252 4.10878 -72.3065
rradius 108.687
rwrist -34.2177
rhand -8.10448 9.73992
rfingers 7.12502
rthumb 17.8083 -19.4647
lclavicle 1.41137e-013 -3.18055e-014
lhumerus 5.81036 -22.5487 94.8372
lradius 104.168
lwrist 69.4816
lhand 15.5085 25.901
lfingers 7.12502
lthumb 40.3301 51.0266
rfemur -44.2587 23.7515 -5.34935
rtibia 52.5506
rfoot -15.3624 -2.58805
rtoes -18.3794
lfemur 13.2289 -3.92042 -6.58669
ltibia 34.8335
lfoot -20.5798 4.17138
ltoes -34.0827
1416
root -2.64834 16.5509 4.62477 -178.083 162.498 -176.912
lowerback 14.6803 -10.2549 -13.2859
upperback 4.50015 -15.3927 -2.22774
thorax -0.357408 -7.78261 6.64412
lowerneck -1.44707 6.91779 -5.93226
upperneck 14.0079 7.75322 16.3622
head 3.40549 4.32761 6.23557
rclavicle 1.49486e-013 -5.725e-014
rhumerus -48.3056 2.45643 -71.4503
rradius 109.845
rwrist -33.7502
rhand -7.41543 10.2455
rfingers 7.12502
rthumb 18.4712 -18.8975
lclavicle 1.49486e-013 -5.725e-014
lhumerus 4.26459 -23.8527 96.2392
lradius 104.69
lwrist 69.5003
lhand 14.9702 25.5212
lfingers 7.12502
lthumb 39.8236 50.8002
rfemur -43.1808 23.0872 -5.18081
rtibia 52.5128
rfoot -15.7921 -3.64452
rtoes -17.8668
lfemur 12.262 -4.13664 -5.77306
ltibia 34.748
lfoot -18.5383 3.2723
ltoes -32.8816
1417
root -2.70589 16.6303 4.71347 -177.846 160.203 -176.695
lowerback 14.442 -10.1839 -13.1604
upperback 4.52287 -15.2375 -2.08771
thorax -0.230295 -7.71683 6.66499
lowerneck -1.45534 6.53785 -5.99697
upperneck 14.093 7.18091 16.8689
head 3.46953 4.07404 6.41047
rclavicle -3.69739e-014 -1.59028e-015
rhumerus -48.2341 1.00185 -70.478
rradius 111.778
rwrist -34.0793
rhand -8.33627 8.07628
rfingers 7.12502
rthumb 17.5853 -21.1484
lclavicle -3.69739e-014 -1.59028e-015
lhumerus 2.48874 -25.0088 97.8523
lradius 105.018
lwrist 69.7465
lhand 14.9488 24.8144
lfingers 7.12502
lthumb 39.8034 50.0994
rfemur -41.6931 22.1942 -4.76016
rtibia 52.277
rfoot -16.2261 -4.69344
rtoes -17.2837
lfemur 11.1863 -4.86271 -4.91735
ltibia 34.7095
lfoot -16.6393 2.27794
ltoes -31.9171
1418
root -2.76667 16.7113 4.78623 -177.6 158.019 -176.973
lowerback 14.3076 -10.0484 -12.5918
upperback 4.4429 -14.9631 -1.82763
thorax -0.376241 -7.56688 6.63403
lowerneck -1.50161 6.12465 -6.02091
upperneck 14.182 6.54162 17.5522
head 3.5466 3.80089 6.63718
rclavicle -1.03368e-014 -1.11319e-014
rhumerus -47.971 -0.412564 -69.1003
rradius 113.203
rwrist -33.3254
rhand -6.96732 8.9363
rfingers 7.12502
rthumb 18.9022 -20.1653
lclavicle -1.03368e-014 -1.11319e-014
lhumerus 0.014065 -25.9139 99.7261
lradius 105.355
lwrist 69.9691
lhand 15.0053 24.1319
lfingers 7.12502
lthumb 39.8567 49.4011
rfemur -40.4978 21.4272 -3.97221
rtibia 51.8861
rfoot -16.5829 -5.92435
rtoes -16.679
lfemur 9.89324 -5.56136 -3.57564
ltibia 34.5165
lfoot -14.7237 1.17774
ltoes -31.4568
1419
root -2.82688 16.7967 4.85623 -177.47 155.828 -177.254
lowerback 14.3271 -9.84162 -12.0249
upperback 4.36404 -14.6166 -1.59217
thorax -0.620194 -7.37392 6.60592
lowerneck -1.40975 5.70095 -6.09307
upperneck 14.078 5.90252 18.3282
head 3.54188 3.51924 6.88999
rclavicle 7.79236e-014 2.8625e-014
rhumerus -47.4991 -1.58182 -67.3492
rradius 114.711
rwrist -32.2022
rhand -5.55866 9.85452
rfingers 7.12502
rthumb 20.2566 -19.1092
lclavicle 7.79236e-014 2.8625e-014
lhumerus -2.32129 -26.9458 101.238
lradius 105.662
lwrist 70.2605
lhand 14.259 23.5524
lfingers 7.12502
lthumb 39.1537 49.0282
rfemur -39.181 20.7809 -3.18412
rtibia 51.3899
rfoot -16.9807 -7.16859
rtoes -15.3977
lfemur 8.62884 -6.39664 -2.30962
ltibia 34.2737
lfoot -12.7584 0.164126
ltoes -30.4807
